C:/Users/Mishalia/Desktop/ffmpeg.exe -hide_banner -y -y -r 12 -i C:/Users/Mishalia/Documents/GitHub/6-10-16-20M/16-20Keyframes/Scene6/frame%04d.png -f apng -pred none -plays 0 C:/Users/Mishalia/Documents/GitHub/6-10-16-20M/16-20Keyframes/Scene6/cat walking.apng
=====================================================
Input #0, image2, from 'C:/Users/Mishalia/Documents/GitHub/6-10-16-20M/16-20Keyframes/Scene6/frame%04d.png':
  Duration: 00:00:00.84, start: 0.000000, bitrate: N/A
  Stream #0:0: Video: png, rgba(pc), 1920x1080 [SAR 9448:9448 DAR 16:9], 25 fps, 25 tbr, 25 tbn
Stream mapping:
  Stream #0:0 -> #0:0 (png (native) -> apng (native))
Press [q] to stop, [?] for help
Output #0, apng, to 'C:/Users/Mishalia/Documents/GitHub/6-10-16-20M/16-20Keyframes/Scene6/cat walking.apng':
  Metadata:
    encoder         : Lavf59.27.100
  Stream #0:0: Video: apng, rgba(pc, progressive), 1920x1080 [SAR 9448:9448 DAR 16:9], q=2-31, 200 kb/s, 12 fps, 12 tbn
    Metadata:
      encoder         : Lavc59.37.100 apng
frame=    1 fps=0.0 q=0.0 size=       0kB time=00:00:00.00 bitrate=N/A speed=   0x    frame=   10 fps=0.0 q=-0.0 size=     128kB time=00:00:00.75 bitrate=1396.3kbits/s speed=1.41x    frame=   20 fps= 19 q=-0.0 size=     189kB time=00:00:01.58 bitrate= 978.5kbits/s speed=1.48x    frame=   21 fps= 18 q=-0.0 Lsize=     219kB time=00:00:01.75 bitrate=1025.9kbits/s speed=1.49x    
video:219kB audio:0kB subtitle:0kB other streams:0kB global headers:0kB muxing overhead: 0.038337%
